<svg width="512" height="512" viewBox="0 0 512 512" fill="none" xmlns="http://www.w3.org/2000/svg">
  <defs>
    <linearGradient id="bg" x1="64" y1="48" x2="448" y2="464" gradientUnits="userSpaceOnUse">
      <stop offset="0%" stop-color="#4B5563"/>
      <stop offset="100%" stop-color="#1F2937"/>
    </linearGradient>
    <linearGradient id="screen" x1="128" y1="112" x2="384" y2="400" gradientUnits="userSpaceOnUse">
      <stop offset="0%" stop-color="#1F2A37"/>
      <stop offset="100%" stop-color="#111827"/>
    </linearGradient>
    <linearGradient id="accent" x1="148" y1="156" x2="362" y2="344" gradientUnits="userSpaceOnUse">
      <stop offset="0%" stop-color="#34D399"/>
      <stop offset="100%" stop-color="#10B981"/>
    </linearGradient>
    <linearGradient id="memory" x1="0" y1="0" x2="1" y2="1">
      <stop offset="0%" stop-color="#60A5FA"/>
      <stop offset="100%" stop-color="#2563EB"/>
    </linearGradient>
  </defs>

  <rect width="512" height="512" rx="112" fill="url(#bg)"/>

  <rect x="104" y="92" width="304" height="244" rx="34" fill="url(#screen)" stroke="#6B7280" stroke-width="8"/>
  <rect x="136" y="126" width="240" height="28" rx="14" fill="#0B1220"/>
  <circle cx="160" cy="140" r="7" fill="#34D399"/>
  <circle cx="184" cy="140" r="7" fill="#60A5FA"/>
  <circle cx="208" cy="140" r="7" fill="#FBBF24"/>

  <path d="M148 238H178V192H206V274H234V168H262V248H290V208H318V286H346V226H364" stroke="url(#accent)" stroke-width="18" stroke-linecap="round" stroke-linejoin="round"/>

  <rect x="148" y="298" width="92" height="14" rx="7" fill="#374151"/>
  <rect x="250" y="298" width="74" height="14" rx="7" fill="#374151"/>
  <rect x="330" y="298" width="34" height="14" rx="7" fill="#374151"/>

  <rect x="176" y="364" width="160" height="20" rx="10" fill="#111827" stroke="#6B7280" stroke-width="6"/>
  <rect x="216" y="394" width="80" height="18" rx="9" fill="#6B7280"/>

  <g transform="translate(330 336)">
    <rect x="0" y="0" width="112" height="112" rx="26" fill="#0F172A" stroke="#64748B" stroke-width="6"/>
    <rect x="20" y="70" width="16" height="22" rx="8" fill="#34D399"/>
    <rect x="44" y="52" width="16" height="40" rx="8" fill="#34D399"/>
    <rect x="68" y="34" width="16" height="58" rx="8" fill="url(#memory)"/>
  </g>
</svg>
