<svg width="512" height="512" viewBox="0 0 512 512" fill="none" xmlns="http://www.w3.org/2000/svg">
  <defs>
    <linearGradient id="bg" x1="0" y1="0" x2="512" y2="512" gradientUnits="userSpaceOnUse">
      <stop offset="0%" stop-color="#6366F1"/>
      <stop offset="100%" stop-color="#312E81"/>
    </linearGradient>

    <linearGradient id="clockGrad" x1="0" y1="0" x2="1" y2="1" gradientUnits="objectBoundingBox">
      <stop offset="0%" stop-color="#FB923C"/>
      <stop offset="100%" stop-color="#EA580C"/>
    </linearGradient>

    <filter id="shadow" x="-30" y="-30" width="570" height="570" filterUnits="userSpaceOnUse">
      <feDropShadow dx="0" dy="10" stdDeviation="14" flood-color="#000000" flood-opacity="0.25" />
    </filter>
  </defs>

  <rect width="512" height="512" rx="112" fill="url(#bg)"/>

  <g filter="url(#shadow)">
    <rect x="126" y="116" width="260" height="280" rx="28" fill="#FFFFFF"/>
    <path d="M 126 144 C 126 128.536 138.536 116 154 116 H 358 C 373.464 116 386 128.536 386 144 V 180 H 126 V 144 Z" fill="#EEF2FF"/>
  </g>

  <rect x="170" y="90" width="20" height="46" rx="10" fill="#94A3B8" filter="url(#shadow)"/>
  <rect x="322" y="90" width="20" height="46" rx="10" fill="#94A3B8" filter="url(#shadow)"/>

  <rect x="166" y="220" width="130" height="14" rx="7" fill="#CBD5E1"/>
  <rect x="166" y="266" width="90" height="14" rx="7" fill="#CBD5E1"/>
  <rect x="166" y="312" width="100" height="14" rx="7" fill="#CBD5E1"/>

  <g filter="url(#shadow)">
    <circle cx="340" cy="330" r="76" fill="#FFFFFF"/>
    <circle cx="340" cy="330" r="62" fill="url(#clockGrad)"/>
    <path d="M 340 295 V 330 L 364 354" stroke="#FFFFFF" stroke-width="12" stroke-linecap="round" stroke-linejoin="round"/>
  </g>
</svg>
